<svg width="33" height="33" viewBox="0 0 33 33" fill="none" xmlns="http://www.w3.org/2000/svg">
<g id="Frame" clip-path="url(#clip0_0_7)">
<g id="Group">
<path id="Vector" d="M16.3273 0.833008L15.7023 3.68026L16.3273 6.80813C21.8551 6.80813 26.3522 11.3053 26.3522 16.833C26.3522 22.3608 21.8551 26.8579 16.3273 26.8579L15.7023 29.4239L16.3273 32.833C25.1639 32.833 32.3273 25.6696 32.3273 16.833C32.3273 7.99645 25.1639 0.833008 16.3273 0.833008Z" fill="#29CCCC"/>
<path id="Vector_2" d="M22.3688 16.833C22.3688 13.4964 19.664 10.7915 16.3273 10.7915L15.7023 16.833L16.3273 22.8745C19.664 22.8745 22.3688 20.1696 22.3688 16.833Z" fill="#282866"/>
<path id="Vector_3" d="M6.3024 26.8579V16.833C6.3024 11.3053 10.7995 6.80813 16.3273 6.80813V0.833008C7.49071 0.833008 0.327271 7.99645 0.327271 16.833V32.833H16.3273V26.8579H6.3024Z" fill="#2EE6E6"/>
<path id="Vector_4" d="M10.2858 16.833C10.2858 20.1696 12.9907 22.8745 16.3273 22.8745V10.7915C12.9907 10.7915 10.2858 13.4964 10.2858 16.833Z" fill="#4A4080"/>
</g>
</g>
<defs>
<clipPath id="clip0_0_7">
<rect width="32" height="32" fill="white" transform="translate(0.327271 0.833008)"/>
</clipPath>
</defs>
</svg>
