<svg width="17" height="17" viewBox="0 0 17 17" fill="none" xmlns="http://www.w3.org/2000/svg">
<g id="icon-google">
<path id="Vector" d="M14.9695 8.22801C14.9741 7.78 14.9265 7.33299 14.8275 6.89601H8.47754V9.36801H12.2035C12.1365 9.79901 11.9815 10.212 11.7495 10.583C11.5175 10.954 11.2115 11.275 10.8505 11.527V11.614L12.8805 13.147H13.0145C13.6807 12.5172 14.2065 11.7539 14.5575 10.907C14.9075 10.062 15.0735 9.15401 15.0435 8.24201" fill="#4285F4"/>
<path id="Vector_2" d="M8.47754 14.748C10.1201 14.7954 11.7196 14.2191 12.9545 13.135L10.8245 11.503C10.1291 11.9607 9.3097 12.1933 8.47754 12.169C7.62548 12.1679 6.79496 11.9012 6.10154 11.406C5.41296 10.9148 4.89765 10.2182 4.62954 9.41601H4.54854L2.46454 11.003V11.076C3.02839 12.1787 3.88683 13.1036 4.94454 13.748C6.00899 14.3973 7.23072 14.7431 8.47754 14.748Z" fill="#34A853"/>
<path id="Vector_3" d="M4.62853 9.41301C4.48474 8.98348 4.41376 8.53294 4.41853 8.08001C4.41501 7.62804 4.48354 7.17841 4.62153 6.74801V6.67301L2.50453 5.05301H2.43753C1.96254 5.98152 1.71484 7.00956 1.71484 8.05251C1.71484 9.09546 1.96254 10.1235 2.43753 11.052L4.62853 9.41301Z" fill="#FBBC05"/>
<path id="Vector_4" d="M8.47756 3.99601C9.44473 3.98045 10.3812 4.33577 11.0946 4.98901L13.0016 3.14901C11.7701 2.01502 10.1514 1.39531 8.47756 1.41701C7.22632 1.41716 5.9991 1.76063 4.92956 2.41001C3.86636 3.05486 3.00352 3.98279 2.43756 5.09001L4.62256 6.74901C4.88856 5.94901 5.40456 5.25101 6.09756 4.75701C6.79248 4.26218 7.62447 3.99551 8.47756 3.99601Z" fill="#EB4335"/>
</g>
</svg>
